<?xml version="1.0" encoding="utf-8"?>
<!-- Generator: Adobe Illustrator 22.0.1, SVG Export Plug-In . SVG Version: 6.00 Build 0)  -->
<svg version="1.1" id="Layer_1" xmlns="http://www.w3.org/2000/svg" xmlns:xlink="http://www.w3.org/1999/xlink" x="0px" y="0px"
	 viewBox="0 0 422 171.5" style="enable-background:new 0 0 422 171.5;" xml:space="preserve">
<style type="text/css">
	.st0{fill:#233969;}
	.st1{fill:#F5F4F1;}
	.st2{fill:none;stroke:#233969;stroke-miterlimit:10;}
	.st3{fill:#F5F4F1;stroke:#233969;stroke-width:2;stroke-linecap:round;stroke-linejoin:round;stroke-miterlimit:10;}
	.st4{fill:none;stroke:#233969;stroke-width:2;stroke-linecap:round;stroke-linejoin:round;stroke-miterlimit:10;}
</style>
<g>
	<circle class="st0" cx="119.5" cy="77.5" r="15"/>
	<circle class="st1" cx="119.5" cy="77.5" r="13"/>
	<g>
		<circle class="st0" cx="114.5" cy="84.5" r="2"/>
		<circle class="st1" cx="114.5" cy="84.5" r="1"/>
	</g>
	<g>
		<circle class="st0" cx="128.5" cy="76.5" r="2"/>
		<circle class="st1" cx="128.5" cy="76.5" r="1"/>
	</g>
	<circle class="st0" cx="112.5" cy="69.5" r="1"/>
	<circle class="st0" cx="123.5" cy="70.5" r="3"/>
	<circle class="st1" cx="123.5" cy="70.5" r="2"/>
</g>
<g>
	<path class="st0" d="M333.6,84c-0.4-0.4-0.4-1,0-1.4l0,0c0.4-0.4,1-0.4,1.4,0l9.9,9.9c0.4,0.4,0.4,1,0,1.4l0,0
		c-0.4,0.4-1,0.4-1.4,0L333.6,84z"/>
	<path class="st0" d="M342.2,83.3c-0.4-0.4-0.4-1,0-1.4l0,0c0.4-0.4,1-0.4,1.4,0l9.9,9.9c0.4,0.4,0.4,1,0,1.4l0,0
		c-0.4,0.4-1,0.4-1.4,0L342.2,83.3z"/>
	<path class="st0" d="M334.3,91.2c-0.4-0.4-1-0.4-1.4,0l0,0c-0.4,0.4-0.4,1,0,1.4l9.9,9.9c0.4,0.4,1,0.4,1.4,0l0,0
		c0.4-0.4,0.4-1,0-1.4L334.3,91.2z"/>
	<path class="st0" d="M342.7,102.5c-3-3-3-7.8,0-10.8s7.8-3,10.8,0s3,7.8,0,10.8S345.7,105.5,342.7,102.5z"/>
	<path class="st1" d="M344,93c2.3-2.3,6-2.3,8.2,0c2.3,2.3,2.3,6,0,8.2c-2.3,2.3-6,2.3-8.2,0C341.7,99,341.7,95.3,344,93z"/>
</g>
<g>
	<rect x="374.7" y="146.5" class="st0" width="10" height="2"/>
	<rect x="386.7" y="146.5" class="st0" width="2" height="2"/>
	<rect x="390.7" y="146.5" class="st0" width="2" height="2"/>
	<polygon class="st0" points="364.7,146.5 355.7,146.5 355.7,148.5 364.7,148.5 372.7,148.5 372.7,146.5 	"/>
</g>
<g>
	<rect x="286.5" y="54.5" class="st0" width="25" height="2"/>
	<rect x="313.5" y="54.5" class="st0" width="8" height="2"/>
	<rect x="323.5" y="54.5" class="st0" width="2" height="2"/>
	<rect x="286.5" y="58.5" class="st0" width="9" height="2"/>
	<rect x="297.5" y="58.5" class="st0" width="2" height="2"/>
</g>
<circle class="st0" cx="16.5" cy="143.5" r="2"/>
<g>
	<circle class="st0" cx="56.5" cy="45.5" r="2"/>
	<circle class="st1" cx="56.5" cy="45.5" r="1"/>
</g>
<g>
	<circle class="st2" cx="399.5" cy="44.5" r="2"/>
	<circle class="st1" cx="399.5" cy="44.5" r="1"/>
</g>
<path class="st0" d="M293,81c0,0,0,2-2,2c2,0,2,2,2,2s0-2,2-2C293,83,293,81,293,81z"/>
<rect x="150.5" y="127.5" class="st0" width="3" height="2"/>
<rect x="146.5" y="127.5" class="st0" width="2" height="2"/>
<polygon class="st0" points="227.5,15.5 226.5,15.5 226.5,13.5 225.5,13.5 224.5,13.5 224.5,15.5 222.5,15.5 222.5,16.5 222.5,17.5 
	224.5,17.5 224.5,18.5 224.5,19.5 226.5,19.5 226.5,18.5 226.5,17.5 228.5,17.5 228.5,16.5 228.5,15.5 "/>
<g>
	<rect x="273" y="66" class="st0" width="1" height="3"/>
	<rect x="272" y="67" class="st0" width="3" height="1"/>
</g>
<g>
	<circle class="st0" cx="295" cy="98.5" r="1"/>
</g>
<g>
	<path class="st0" d="M290,117.5c0,0,0,2-2,2c2,0,2,2,2,2s0-2,2-2C290,119.5,290,117.5,290,117.5z"/>
</g>
<path class="st0" d="M165.8,143.5c0,0,0,2-2,2c2,0,2,2,2,2s0-2,2-2C165.8,145.5,165.8,143.5,165.8,143.5z"/>
<g>
	<rect x="125.5" y="39.2" transform="matrix(0.7071 -0.7071 0.7071 0.7071 9.1217 101.4562)" class="st0" width="3" height="1"/>
	<rect x="121.3" y="43.4" transform="matrix(0.7071 -0.7071 0.7071 0.7071 4.9217 99.6812)" class="st0" width="3" height="1"/>
	<rect x="126.5" y="42.4" transform="matrix(0.7071 -0.7071 0.7071 0.7071 6.1341 102.6687)" class="st0" width="1" height="3"/>
	<rect x="122.3" y="38.2" transform="matrix(0.7071 -0.7071 0.7071 0.7071 7.9091 98.4688)" class="st0" width="1" height="3"/>
</g>
<g>
	<rect x="145" y="71.5" class="st0" width="1" height="1"/>
	<rect x="145" y="73.5" class="st0" width="1" height="1"/>
	<rect x="146" y="72.5" class="st0" width="1" height="1"/>
	<rect x="144" y="72.5" class="st0" width="1" height="1"/>
</g>
<g>
	<rect x="267.5" y="136.4" class="st0" width="1" height="1"/>
	<rect x="266.5" y="137.4" class="st0" width="1" height="1"/>
	<rect x="267.5" y="138.4" class="st0" width="1" height="1"/>
	<rect x="268.5" y="137.4" class="st0" width="1" height="1"/>
</g>
<rect x="168.5" y="24.5" class="st0" width="2" height="2"/>
<g>
	<rect x="81.5" y="99.5" class="st0" width="28" height="2"/>
	<rect x="73.5" y="99.5" class="st0" width="6" height="2"/>
	<rect x="69.5" y="99.5" class="st0" width="2" height="2"/>
</g>
<g>
	<rect x="77.3" y="135.9" transform="matrix(0.7071 -0.7071 0.7071 0.7071 -73.5085 95.2966)" class="st0" width="2" height="1"/>
	<rect x="77.8" y="138.9" transform="matrix(0.7071 -0.7071 0.7071 0.7071 -75.998 96.307)" class="st0" width="1" height="2"/>
	<rect x="74.2" y="135.4" transform="matrix(0.7071 -0.7071 0.7071 0.7071 -74.5896 92.7778)" class="st0" width="1" height="2"/>
	<rect x="73.7" y="139.4" transform="matrix(0.7071 -0.7071 0.7071 0.7071 -77.0791 93.7882)" class="st0" width="2" height="1"/>
</g>
<g>
	<polygon class="st0" points="74.1,84.5 71.5,89.7 68.9,84.5 	"/>
	<polygon class="st1" points="71.5,87.5 72.5,85.5 70.5,85.5 	"/>
</g>
<g>
	<rect x="287.5" y="129.5" class="st0" width="33" height="2"/>
	<rect x="322.5" y="129.5" class="st0" width="4" height="2"/>
</g>
<rect x="312.5" y="92.5" class="st0" width="2" height="4"/>
<rect x="312.5" y="98.5" class="st0" width="2" height="4"/>
<rect x="315.5" y="96.5" class="st0" width="9" height="2"/>
<rect x="309.5" y="96.5" class="st0" width="2" height="2"/>
<circle class="st0" cx="116.5" cy="118.5" r="7"/>
<circle class="st1" cx="116.5" cy="118.5" r="5"/>
<path class="st0" d="M122.5,116c0,0.3-0.2,0.5-0.5,0.5h-6c-0.3,0-0.5-0.2-0.5-0.5l0,0c0-0.3,0.2-0.5,0.5-0.5h6
	C122.3,115.5,122.5,115.7,122.5,116L122.5,116z"/>
<path class="st0" d="M122.5,120c0,0.3-0.2,0.5-0.5,0.5h-3c-0.3,0-0.5-0.2-0.5-0.5l0,0c0-0.3,0.2-0.5,0.5-0.5h3
	C122.3,119.5,122.5,119.7,122.5,120L122.5,120z"/>
<path class="st0" d="M120.5,123c0,0.3-0.2,0.5-0.5,0.5h-4c-0.3,0-0.5-0.2-0.5-0.5l0,0c0-0.3,0.2-0.5,0.5-0.5h4
	C120.3,122.5,120.5,122.7,120.5,123L120.5,123z"/>
<path class="st0" d="M114.5,121c0,0.3-0.2,0.5-0.5,0.5h-3c-0.3,0-0.5-0.2-0.5-0.5l0,0c0-0.3,0.2-0.5,0.5-0.5h3
	C114.3,120.5,114.5,120.7,114.5,121L114.5,121z"/>
<path class="st0" d="M115.5,118c0,0.3-0.2,0.5-0.5,0.5h-4c-0.3,0-0.5-0.2-0.5-0.5l0,0c0-0.3,0.2-0.5,0.5-0.5h4
	C115.3,117.5,115.5,117.7,115.5,118L115.5,118z"/>
<path class="st0" d="M115.5,114c0,0.3-0.2,0.5-0.5,0.5h-2c-0.3,0-0.5-0.2-0.5-0.5l0,0c0-0.3,0.2-0.5,0.5-0.5h2
	C115.3,113.5,115.5,113.7,115.5,114L115.5,114z"/>
<path class="st1" d="M224,55.8h-33.2v20.8h46v-4.4C230.3,69.1,225.6,63,224,55.8z"/>
<circle class="st3" cx="246.7" cy="51.4" r="16.4"/>
<g>
	<path class="st4" d="M244.6,74.3v58.3h-57.2v5.2h62.4V74.3"/>
	<path class="st4" d="M237,76.8h-46.3V55.7h33.4 M223.9,48.3h-40.6v84.2h4.1h57.2V74.3 M224.4,87.2h-33.6H224.4z M190.8,121.1h45
		H190.8z M190.8,113.3h45H190.8z M190.8,105.6h45H190.8z M190.8,97.8h45H190.8z"/>
	<path class="st4" d="M224.1,55.7h-33.4v21.1H237v-4.6"/>
</g>
<g>
	<line class="st4" x1="246.7" y1="43.6" x2="246.7" y2="59.2"/>
	<line class="st4" x1="254.4" y1="51.4" x2="238.9" y2="51.4"/>
</g>
</svg>
